<svg xmlns="http://www.w3.org/2000/svg" width="617" height="80" viewBox="0 0 617 80"><defs><style>.a{fill:#3f51b5;}</style></defs><path class="a" d="M-759.3,3860h-617c11.484-11.564,27.592-22.4,47.874-32.2,20.086-9.71,43.876-18.226,70.71-25.311a657.046,657.046,0,0,1,88.543-16.553A850.063,850.063,0,0,1-1067.8,3780a850.064,850.064,0,0,1,101.372,5.932,657.072,657.072,0,0,1,88.544,16.553c26.835,7.085,50.625,15.6,70.711,25.311,20.282,9.806,36.388,20.639,47.872,32.2l0,0h0Z" transform="translate(1376.299 -3780)"/></svg>